
<svg id="download" xmlns="http://www.w3.org/2000/svg" width="100" height="100" viewBox="0 0 100 100">
<line x1="-45" y1="0" x2="-45" y2="720" stroke="rgb(0, 0, 0)"></line>
<line x1="30" y1="0" x2="30" y2="720" stroke="rgb(0, 0, 0)"></line>
<line x1="105" y1="0" x2="105" y2="720" stroke="rgb(0, 0, 0)"></line>
<line x1="180" y1="0" x2="180" y2="720" stroke="rgb(0, 0, 0)"></line>
<line x1="255" y1="0" x2="255" y2="720" stroke="rgb(0, 0, 0)"></line>
<line x1="330" y1="0" x2="330" y2="720" stroke="rgb(0, 0, 0)"></line>
<line x1="405" y1="0" x2="405" y2="720" stroke="rgb(0, 0, 0)"></line>
<line x1="480" y1="0" x2="480" y2="720" stroke="rgb(0, 0, 0)"></line>
<line x1="555" y1="0" x2="555" y2="720" stroke="rgb(0, 0, 0)"></line>
<line x1="630" y1="0" x2="630" y2="720" stroke="rgb(0, 0, 0)"></line>
<line x1="705" y1="0" x2="705" y2="720" stroke="rgb(0, 0, 0)"></line>
<line x1="780" y1="0" x2="780" y2="720" stroke="rgb(0, 0, 0)"></line>
<line x1="855" y1="0" x2="855" y2="720" stroke="rgb(0, 0, 0)"></line>
<line x1="930" y1="0" x2="930" y2="720" stroke="rgb(0, 0, 0)"></line>
<line x1="1005" y1="0" x2="1005" y2="720" stroke="rgb(0, 0, 0)"></line>
<line x1="1080" y1="0" x2="1080" y2="720" stroke="rgb(0, 0, 0)"></line>
<line x1="1155" y1="0" x2="1155" y2="720" stroke="rgb(0, 0, 0)"></line>
<line x1="1230" y1="0" x2="1230" y2="720" stroke="rgb(0, 0, 0)"></line>
<line x1="1305" y1="0" x2="1305" y2="720" stroke="rgb(0, 0, 0)"></line>
<line x1="1380" y1="0" x2="1380" y2="720" stroke="rgb(0, 0, 0)"></line>
<line x1="1455" y1="0" x2="1455" y2="720" stroke="rgb(0, 0, 0)"></line>
<line x1="1530" y1="0" x2="1530" y2="720" stroke="rgb(0, 0, 0)"></line>
<line x1="0" y1="-45" x2="1536" y2="-45" stroke="rgb(0, 0, 0)"></line>
<line x1="0" y1="30" x2="1536" y2="30" stroke="rgb(0, 0, 0)"></line>
<line x1="0" y1="105" x2="1536" y2="105" stroke="rgb(0, 0, 0)"></line>
<line x1="0" y1="180" x2="1536" y2="180" stroke="rgb(0, 0, 0)"></line>
<line x1="0" y1="255" x2="1536" y2="255" stroke="rgb(0, 0, 0)"></line>
<line x1="0" y1="330" x2="1536" y2="330" stroke="rgb(0, 0, 0)"></line>
<line x1="0" y1="405" x2="1536" y2="405" stroke="rgb(0, 0, 0)"></line>
<line x1="0" y1="480" x2="1536" y2="480" stroke="rgb(0, 0, 0)"></line>
<line x1="0" y1="555" x2="1536" y2="555" stroke="rgb(0, 0, 0)"></line>
<line x1="0" y1="630" x2="1536" y2="630" stroke="rgb(0, 0, 0)"></line>
<line x1="0" y1="705" x2="1536" y2="705" stroke="rgb(0, 0, 0)"></line>
<line x1="-82.5" y1="0" x2="-82.5" y2="720" stroke="rgb(0, 0, 0)"></line>
<line x1="-7.5" y1="0" x2="-7.5" y2="720" stroke="rgb(0, 0, 0)"></line>
<line x1="67.5" y1="0" x2="67.5" y2="720" stroke="rgb(0, 0, 0)"></line>
<line x1="142.5" y1="0" x2="142.5" y2="720" stroke="rgb(0, 0, 0)"></line>
<line x1="217.5" y1="0" x2="217.5" y2="720" stroke="rgb(0, 0, 0)"></line>
<line x1="292.5" y1="0" x2="292.5" y2="720" stroke="rgb(0, 0, 0)"></line>
<line x1="367.5" y1="0" x2="367.5" y2="720" stroke="rgb(0, 0, 0)"></line>
<line x1="442.5" y1="0" x2="442.5" y2="720" stroke="rgb(0, 0, 0)"></line>
<line x1="517.5" y1="0" x2="517.5" y2="720" stroke="rgb(0, 0, 0)"></line>
<line x1="592.5" y1="0" x2="592.5" y2="720" stroke="rgb(0, 0, 0))"></line>
<line x1="667.5" y1="0" x2="667.5" y2="720" stroke="rgb(0, 0, 0)"></line>
<line x1="742.5" y1="0" x2="742.5" y2="720" stroke="rgb(0, 0, 0)"></line>
<line x1="817.5" y1="0" x2="817.5" y2="720" stroke="rgb(0, 0, 0)"></line>
<line x1="892.5" y1="0" x2="892.5" y2="720" stroke="rgb(0, 0, 0)"></line>
<line x1="967.5" y1="0" x2="967.5" y2="720" stroke="rgb(0, 0, 0)"></line>
<line x1="1042.5" y1="0" x2="1042.5" y2="720" stroke="rgb(0, 0, 0)"></line>
<line x1="1117.5" y1="0" x2="1117.5" y2="720" stroke="rgb(0, 0, 0)"></line>
<line x1="1192.5" y1="0" x2="1192.5" y2="720" stroke="rgb(0, 0, 0)"></line>
<line x1="1267.5" y1="0" x2="1267.5" y2="720" stroke="rgb(0, 0, 0)"></line>
<line x1="1342.5" y1="0" x2="1342.5" y2="720" stroke="rgb(0, 0, 0)"></line>
<line x1="1417.5" y1="0" x2="1417.5" y2="720" stroke="rgb(0, 0, 0)"></line>
<line x1="1492.5" y1="0" x2="1492.5" y2="720" stroke="rgb(0, 0, 0)"></line>
<line x1="0" y1="-82.5" x2="1536" y2="-82.5" stroke="rgb(0, 0, 0)"></line>
<line x1="0" y1="-7.5" x2="1536" y2="-7.5" stroke="rgb(0, 0, 0)"></line>
<line x1="0" y1="67.5" x2="1536" y2="67.5" stroke="rgb(0, 0, 0)"></line>
<line x1="0" y1="142.5" x2="1536" y2="142.5" stroke="rgb(0, 0, 0)"></line>
<line x1="0" y1="217.5" x2="1536" y2="217.5" stroke="rgb(0, 0, 0)"></line>
<line x1="0" y1="292.5" x2="1536" y2="292.5" stroke="rgb(0, 0, 0)"></line>
<line x1="0" y1="367.5" x2="1536" y2="367.5" stroke="rgb(0, 0, 0)"></line>
<line x1="0" y1="442.5" x2="1536" y2="442.5" stroke="rgb(0, 0, 0)"></line>
<line x1="0" y1="517.5" x2="1536" y2="517.5" stroke="rgb(0, 0, 0)"></line>
<line x1="0" y1="592.5" x2="1536" y2="592.5" stroke="rgb(0, 0, 0)"></line>
<line x1="0" y1="667.5" x2="1536" y2="667.5" stroke="rgb(0, 0, 0)"></line>
</svg>