<?xml version="1.0" standalone="no"?>
<!DOCTYPE svg PUBLIC "-//W3C//DTD SVG 20010904//EN"
 "http://www.w3.org/TR/2001/REC-SVG-20010904/DTD/svg10.dtd">
<svg version="1.0" xmlns="http://www.w3.org/2000/svg"
 width="500pt" height="500pt" viewBox="0 0 500 500"
 preserveAspectRatio="xMidYMid meet">

<g transform="translate(0.000000,595.000000) scale(0.100000,-0.100000)"
fill="#000000" stroke="none">
<path d="M0 2975 l0 -2975 3640 0 3640 0 0 2975 0 2975 -3640 0 -3640 0 0
-2975z m3640 2345 l0 -140 35 0 c33 0 35 -2 35 -35 l0 -35 70 0 70 0 0 -70 0
-70 70 0 70 0 0 70 0 70 70 0 70 0 0 35 0 35 70 0 70 0 0 35 c0 33 2 35 35 35
l35 0 0 -210 0 -210 -35 0 -35 0 0 -105 0 -105 -210 0 -210 0 0 35 0 35 -245
0 -245 0 0 -35 0 -35 -210 0 -210 0 0 105 0 105 -35 0 -35 0 0 210 0 210 35 0
c33 0 35 -2 35 -35 0 -33 2 -35 35 -35 33 0 35 -2 35 -35 0 -33 2 -35 35 -35
l35 0 0 -70 0 -70 70 0 70 0 0 -35 c0 -33 2 -35 35 -35 l35 0 0 105 0 105 70
0 70 0 0 35 c0 33 2 35 35 35 l35 0 0 70 0 70 35 0 35 0 0 70 0 70 35 0 35 0
0 -140z m630 -805 l0 -35 70 0 70 0 0 -35 c0 -33 2 -35 35 -35 l35 0 0 -70 0
-70 35 0 c33 0 35 -2 35 -35 0 -33 2 -35 35 -35 l35 0 0 -70 0 -70 -35 0 -35
0 0 -140 0 -140 -315 0 -315 0 0 35 c0 33 -2 35 -35 35 -33 0 -35 2 -35 35 0
33 -2 35 -35 35 -33 0 -35 2 -35 35 0 33 -2 35 -35 35 -33 0 -35 2 -35 35 0
33 -2 35 -35 35 l-35 0 0 -70 0 -70 35 0 35 0 0 -70 0 -70 35 0 c33 0 35 -2
35 -35 0 -33 2 -35 35 -35 33 0 35 -2 35 -35 l0 -35 -385 0 -385 0 0 -35 c0
-33 2 -35 35 -35 l35 0 0 -175 0 -175 -35 0 c-33 0 -35 2 -35 35 l0 35 -105 0
-105 0 0 35 c0 33 -2 35 -35 35 -33 0 -35 2 -35 35 0 33 2 35 35 35 33 0 35 2
35 35 0 33 -2 35 -35 35 -33 0 -35 2 -35 35 l0 35 70 0 70 0 0 35 0 35 -140 0
-140 0 0 35 c0 33 2 35 35 35 l35 0 0 210 0 210 -35 0 -35 0 0 70 0 70 35 0
c33 0 35 2 35 35 l0 35 70 0 70 0 0 70 0 70 70 0 70 0 0 35 0 35 630 0 630 0
0 -35z m2170 -455 l0 -280 -35 0 -35 0 0 -280 0 -280 -175 0 -175 0 0 245 0
245 -140 0 -140 0 0 35 0 35 -70 0 -70 0 0 210 0 210 70 0 70 0 0 -140 0 -140
70 0 70 0 0 -35 0 -35 175 0 175 0 0 35 0 35 -70 0 -70 0 0 35 0 35 -105 0
-105 0 0 175 0 175 280 0 280 0 0 -280z m-5810 -210 l0 -70 105 0 105 0 0 -35
0 -35 875 0 875 0 0 -35 0 -35 -875 0 -875 0 0 35 0 35 -105 0 -105 0 0 35 c0
33 -2 35 -35 35 -33 0 -35 2 -35 35 l0 35 -70 0 -70 0 0 35 0 35 105 0 105 0
0 -70z m4480 -140 l0 -70 -280 0 -280 0 0 35 0 35 245 0 245 0 0 35 c0 33 2
35 35 35 l35 0 0 -70z m560 -105 l0 -35 105 0 105 0 0 -70 0 -70 -35 0 c-33 0
-35 -2 -35 -35 0 -33 -2 -35 -35 -35 -33 0 -35 -2 -35 -35 0 -33 -2 -35 -35
-35 -33 0 -35 -2 -35 -35 0 -33 -2 -35 -35 -35 -33 0 -35 -2 -35 -35 0 -33 -2
-35 -35 -35 -33 0 -35 -2 -35 -35 0 -33 -2 -35 -35 -35 -33 0 -35 2 -35 35 0
33 -2 35 -35 35 -33 0 -35 2 -35 35 0 33 -2 35 -35 35 -33 0 -35 2 -35 35 0
33 -2 35 -35 35 l-35 0 0 70 0 70 70 0 70 0 0 70 0 70 70 0 70 0 0 35 0 35 70
0 70 0 0 -35z m-3500 -1155 l0 -140 210 0 210 0 0 140 0 140 210 0 210 0 0
-140 0 -140 210 0 210 0 0 140 0 140 210 0 210 0 0 -140 0 -140 210 0 210 0 0
140 0 140 210 0 210 0 0 -140 0 -140 210 0 210 0 0 140 0 140 210 0 210 0 0
-140 0 -140 210 0 210 0 0 140 0 140 35 0 c33 0 35 -2 35 -35 0 -33 2 -35 35
-35 33 0 35 -2 35 -35 l0 -35 70 0 70 0 0 -35 c0 -33 2 -35 35 -35 33 0 35 -2
35 -35 l0 -35 -175 0 -175 0 0 -175 0 -175 -210 0 -210 0 0 175 0 175 -210 0
-210 0 0 -175 0 -175 -210 0 -210 0 0 175 0 175 -210 0 -210 0 0 -175 0 -175
-210 0 -210 0 0 175 0 175 -210 0 -210 0 0 -175 0 -175 -210 0 -210 0 0 175 0
175 -210 0 -210 0 0 -175 0 -175 -210 0 -210 0 0 175 0 175 -210 0 -210 0 0
140 0 140 210 0 210 0 0 -140z"/>
<path d="M2870 4235 c0 -33 2 -35 35 -35 33 0 35 -2 35 -35 l0 -35 70 0 70 0
0 35 c0 33 2 35 35 35 33 0 35 2 35 35 l0 35 -140 0 -140 0 0 -35z"/>
</g>
</svg>
