<?xml version="1.0" encoding="UTF-8"?>
<svg version="1.1" xmlns="http://www.w3.org/2000/svg" width="728" height="595">
<path d="M0 0 C240.24 0 480.48 0 728 0 C728 196.35 728 392.7 728 595 C487.76 595 247.52 595 0 595 C0 398.65 0 202.3 0 0 Z " fill="#141414" transform="translate(0,0)"/>
<path d="M0 0 C2.31 0 4.62 0 7 0 C7 2.31 7 4.62 7 7 C9.31 7 11.62 7 14 7 C14 18.55 14 30.1 14 42 C18.62 42 23.24 42 28 42 C28 46.62 28 51.24 28 56 C32.62 56 37.24 56 42 56 C42 53.69 42 51.38 42 49 C44.31 49 46.62 49 49 49 C49 46.69 49 44.38 49 42 C58.24 42 67.48 42 77 42 C77 30.45 77 18.9 77 7 C81.62 7 86.24 7 91 7 C91 18.55 91 30.1 91 42 C88.69 42 86.38 42 84 42 C84 67.41 84 92.82 84 119 C86.31 119 88.62 119 91 119 C91 121.31 91 123.62 91 126 C93.31 126 95.62 126 98 126 C98 128.31 98 130.62 98 133 C102.62 133 107.24 133 112 133 C112 135.31 112 137.62 112 140 C125.86 140 139.72 140 154 140 C154 130.76 154 121.52 154 112 C156.31 112 158.62 112 161 112 C161 109.69 161 107.38 161 105 C163.31 105 165.62 105 168 105 C168 102.69 168 100.38 168 98 C177.24 98 186.48 98 196 98 C196 104.93 196 111.86 196 119 C189.07 119 182.14 119 175 119 C175 132.86 175 146.72 175 161 C179.62 161 184.24 161 189 161 C189 154.07 189 147.14 189 140 C198.24 140 207.48 140 217 140 C217 135.38 217 130.76 217 126 C244.72 126 272.44 126 301 126 C301 137.55 301 149.1 301 161 C307.93 161 314.86 161 322 161 C322 170.24 322 179.48 322 189 C315.07 189 308.14 189 301 189 C301 200.55 301 212.1 301 224 C296.38 224 291.76 224 287 224 C287 258.65 287 293.3 287 329 C289.31 329 291.62 329 294 329 C294 331.31 294 333.62 294 336 C296.31 336 298.62 336 301 336 C301 338.31 301 340.62 301 343 C303.31 343 305.62 343 308 343 C308 345.31 308 347.62 308 350 C305.69 350 303.38 350 301 350 C301 352.31 301 354.62 301 357 C298.69 357 296.38 357 294 357 C294 359.31 294 361.62 294 364 C291.69 364 289.38 364 287 364 C287 382.48 287 400.96 287 420 C270.83 420 254.66 420 238 420 C238 422.31 238 424.62 238 427 C240.31 427 242.62 427 245 427 C245 429.31 245 431.62 245 434 C247.31 434 249.62 434 252 434 C252 436.31 252 438.62 252 441 C254.31 441 256.62 441 259 441 C259 443.31 259 445.62 259 448 C261.31 448 263.62 448 266 448 C266 450.31 266 452.62 266 455 C270.62 455 275.24 455 280 455 C280 457.31 280 459.62 280 462 C282.31 462 284.62 462 287 462 C287 464.31 287 466.62 287 469 C289.31 469 291.62 469 294 469 C294 473.62 294 478.24 294 483 C298.62 483 303.24 483 308 483 C308 485.31 308 487.62 308 490 C310.31 490 312.62 490 315 490 C315 492.31 315 494.62 315 497 C317.31 497 319.62 497 322 497 C322 499.31 322 501.62 322 504 C324.31 504 326.62 504 329 504 C329 506.31 329 508.62 329 511 C331.31 511 333.62 511 336 511 C336 517.93 336 524.86 336 532 C338.31 532 340.62 532 343 532 C343 541.24 343 550.48 343 560 C336.07 560 329.14 560 322 560 C322 562.31 322 564.62 322 567 C317.38 567 312.76 567 308 567 C308 564.69 308 562.38 308 560 C303.38 560 298.76 560 294 560 C294 557.69 294 555.38 294 553 C287.07 553 280.14 553 273 553 C273 550.69 273 548.38 273 546 C266.07 546 259.14 546 252 546 C252 548.31 252 550.62 252 553 C242.76 553 233.52 553 224 553 C224 550.69 224 548.38 224 546 C212.45 546 200.9 546 189 546 C189 548.31 189 550.62 189 553 C179.76 553 170.52 553 161 553 C161 555.31 161 557.62 161 560 C156.38 560 151.76 560 147 560 C147 557.69 147 555.38 147 553 C142.38 553 137.76 553 133 553 C133 550.69 133 548.38 133 546 C130.69 546 128.38 546 126 546 C126 548.31 126 550.62 126 553 C123.69 553 121.38 553 119 553 C119 555.31 119 557.62 119 560 C116.69 560 114.38 560 112 560 C112 562.31 112 564.62 112 567 C107.38 567 102.76 567 98 567 C98 564.69 98 562.38 98 560 C95.69 560 93.38 560 91 560 C91 557.69 91 555.38 91 553 C88.69 553 86.38 553 84 553 C84 550.69 84 548.38 84 546 C81.69 546 79.38 546 77 546 C77 541.38 77 536.76 77 532 C74.69 532 72.38 532 70 532 C70 536.62 70 541.24 70 546 C67.69 546 65.38 546 63 546 C63 548.31 63 550.62 63 553 C58.38 553 53.76 553 49 553 C49 550.69 49 548.38 49 546 C44.38 546 39.76 546 35 546 C35 548.31 35 550.62 35 553 C30.38 553 25.76 553 21 553 C21 555.31 21 557.62 21 560 C18.69 560 16.38 560 14 560 C14 562.31 14 564.62 14 567 C7.07 567 0.14 567 -7 567 C-7 569.31 -7 571.62 -7 574 C-11.62 574 -16.24 574 -21 574 C-21 571.69 -21 569.38 -21 567 C-23.31 567 -25.62 567 -28 567 C-28 564.69 -28 562.38 -28 560 C-30.31 560 -32.62 560 -35 560 C-35 557.69 -35 555.38 -35 553 C-37.31 553 -39.62 553 -42 553 C-42 555.31 -42 557.62 -42 560 C-44.31 560 -46.62 560 -49 560 C-49 562.31 -49 564.62 -49 567 C-55.93 567 -62.86 567 -70 567 C-70 564.69 -70 562.38 -70 560 C-79.24 560 -88.48 560 -98 560 C-98 562.31 -98 564.62 -98 567 C-104.93 567 -111.86 567 -119 567 C-119 564.69 -119 562.38 -119 560 C-121.31 560 -123.62 560 -126 560 C-126 562.31 -126 564.62 -126 567 C-132.93 567 -139.86 567 -147 567 C-147 562.38 -147 557.76 -147 553 C-144.69 553 -142.38 553 -140 553 C-140 550.69 -140 548.38 -140 546 C-137.69 546 -135.38 546 -133 546 C-133 543.69 -133 541.38 -133 539 C-130.69 539 -128.38 539 -126 539 C-126 534.38 -126 529.76 -126 525 C-123.69 525 -121.38 525 -119 525 C-119 522.69 -119 520.38 -119 518 C-116.69 518 -114.38 518 -112 518 C-112 511.07 -112 504.14 -112 497 C-116.62 497 -121.24 497 -126 497 C-126 492.38 -126 487.76 -126 483 C-121.38 483 -116.76 483 -112 483 C-112 469.14 -112 455.28 -112 441 C-114.31 441 -116.62 441 -119 441 C-119 436.38 -119 431.76 -119 427 C-116.69 427 -114.38 427 -112 427 C-112 424.69 -112 422.38 -112 420 C-114.31 420 -116.62 420 -119 420 C-119 417.69 -119 415.38 -119 413 C-125.93 413 -132.86 413 -140 413 C-140 410.69 -140 408.38 -140 406 C-142.31 406 -144.62 406 -147 406 C-147 403.69 -147 401.38 -147 399 C-144.69 399 -142.38 399 -140 399 C-140 396.69 -140 394.38 -140 392 C-151.55 392 -163.1 392 -175 392 C-175 394.31 -175 396.62 -175 399 C-179.62 399 -184.24 399 -189 399 C-189 394.38 -189 389.76 -189 385 C-191.31 385 -193.62 385 -196 385 C-196 359.59 -196 334.18 -196 308 C-193.69 308 -191.38 308 -189 308 C-189 303.38 -189 298.76 -189 294 C-184.38 294 -179.76 294 -175 294 C-175 296.31 -175 298.62 -175 301 C-161.14 301 -147.28 301 -133 301 C-133 298.69 -133 296.38 -133 294 C-128.38 294 -123.76 294 -119 294 C-119 291.69 -119 289.38 -119 287 C-116.69 287 -114.38 287 -112 287 C-112 284.69 -112 282.38 -112 280 C-109.69 280 -107.38 280 -105 280 C-105 277.69 -105 275.38 -105 273 C-102.69 273 -100.38 273 -98 273 C-98 270.69 -98 268.38 -98 266 C-81.83 266 -65.66 266 -49 266 C-49 263.69 -49 261.38 -49 259 C-53.62 259 -58.24 259 -63 259 C-63 256.69 -63 254.38 -63 252 C-65.31 252 -67.62 252 -70 252 C-70 249.69 -70 247.38 -70 245 C-74.62 245 -79.24 245 -84 245 C-84 242.69 -84 240.38 -84 238 C-86.31 238 -88.62 238 -91 238 C-91 233.38 -91 228.76 -91 224 C-148.75 224 -206.5 224 -266 224 C-266 221.69 -266 219.38 -266 217 C-272.93 217 -279.86 217 -287 217 C-287 214.69 -287 212.38 -287 210 C-291.62 210 -296.24 210 -301 210 C-301 207.69 -301 205.38 -301 203 C-305.62 203 -310.24 203 -315 203 C-315 200.69 -315 198.38 -315 196 C-317.31 196 -319.62 196 -322 196 C-322 193.69 -322 191.38 -322 189 C-324.31 189 -326.62 189 -329 189 C-329 186.69 -329 184.38 -329 182 C-326.69 182 -324.38 182 -322 182 C-322 179.69 -322 177.38 -322 175 C-319.69 175 -317.38 175 -315 175 C-315 172.69 -315 170.38 -315 168 C-312.69 168 -310.38 168 -308 168 C-308 165.69 -308 163.38 -308 161 C-305.69 161 -303.38 161 -301 161 C-301 158.69 -301 156.38 -301 154 C-298.69 154 -296.38 154 -294 154 C-294 151.69 -294 149.38 -294 147 C-291.69 147 -289.38 147 -287 147 C-287 144.69 -287 142.38 -287 140 C-222.32 140 -157.64 140 -91 140 C-91 137.69 -91 135.38 -91 133 C-88.69 133 -86.38 133 -84 133 C-84 98.35 -84 63.7 -84 28 C-86.31 28 -88.62 28 -91 28 C-91 23.38 -91 18.76 -91 14 C-88.69 14 -86.38 14 -84 14 C-84 11.69 -84 9.38 -84 7 C-79.38 7 -74.76 7 -70 7 C-70 18.55 -70 30.1 -70 42 C-63.07 42 -56.14 42 -49 42 C-49 44.31 -49 46.62 -49 49 C-44.38 49 -39.76 49 -35 49 C-35 51.31 -35 53.62 -35 56 C-32.69 56 -30.38 56 -28 56 C-28 51.38 -28 46.76 -28 42 C-23.38 42 -18.76 42 -14 42 C-14 30.45 -14 18.9 -14 7 C-9.38 7 -4.76 7 0 7 C0 4.69 0 2.38 0 0 Z " fill="#595652" transform="translate(357,21)"/>
<path d="M0 0 C62.37 0 124.74 0 189 0 C189 4.62 189 9.24 189 14 C216.72 14 244.44 14 273 14 C273 16.31 273 18.62 273 21 C275.31 21 277.62 21 280 21 C280 27.93 280 34.86 280 42 C282.31 42 284.62 42 287 42 C287 44.31 287 46.62 287 49 C289.31 49 291.62 49 294 49 C294 53.62 294 58.24 294 63 C300.93 63 307.86 63 315 63 C315 65.31 315 67.62 315 70 C312.69 70 310.38 70 308 70 C308 72.31 308 74.62 308 77 C312.62 77 317.24 77 322 77 C322 79.31 322 81.62 322 84 C324.31 84 326.62 84 329 84 C329 88.62 329 93.24 329 98 C331.31 98 333.62 98 336 98 C336 100.31 336 102.62 336 105 C342.93 105 349.86 105 357 105 C357 107.31 357 109.62 357 112 C359.31 112 361.62 112 364 112 C364 114.31 364 116.62 364 119 C366.31 119 368.62 119 371 119 C371 121.31 371 123.62 371 126 C373.31 126 375.62 126 378 126 C378 132.93 378 139.86 378 147 C380.31 147 382.62 147 385 147 C385 151.62 385 156.24 385 161 C380.38 161 375.76 161 371 161 C371 158.69 371 156.38 371 154 C366.38 154 361.76 154 357 154 C357 151.69 357 149.38 357 147 C352.38 147 347.76 147 343 147 C343 144.69 343 142.38 343 140 C340.69 140 338.38 140 336 140 C336 142.31 336 144.62 336 147 C331.38 147 326.76 147 322 147 C322 149.31 322 151.62 322 154 C319.69 154 317.38 154 315 154 C315 156.31 315 158.62 315 161 C305.76 161 296.52 161 287 161 C287 158.69 287 156.38 287 154 C275.45 154 263.9 154 252 154 C252 156.31 252 158.62 252 161 C242.76 161 233.52 161 224 161 C224 163.31 224 165.62 224 168 C219.38 168 214.76 168 210 168 C210 165.69 210 163.38 210 161 C205.38 161 200.76 161 196 161 C196 158.69 196 156.38 196 154 C193.69 154 191.38 154 189 154 C189 156.31 189 158.62 189 161 C186.69 161 184.38 161 182 161 C182 163.31 182 165.62 182 168 C179.69 168 177.38 168 175 168 C175 170.31 175 172.62 175 175 C170.38 175 165.76 175 161 175 C161 172.69 161 170.38 161 168 C158.69 168 156.38 168 154 168 C154 165.69 154 163.38 154 161 C151.69 161 149.38 161 147 161 C147 158.69 147 156.38 147 154 C144.69 154 142.38 154 140 154 C140 149.38 140 144.76 140 140 C137.69 140 135.38 140 133 140 C133 144.62 133 149.24 133 154 C130.69 154 128.38 154 126 154 C126 156.31 126 158.62 126 161 C121.38 161 116.76 161 112 161 C112 158.69 112 156.38 112 154 C107.38 154 102.76 154 98 154 C98 156.31 98 158.62 98 161 C93.38 161 88.76 161 84 161 C84 163.31 84 165.62 84 168 C81.69 168 79.38 168 77 168 C77 170.31 77 172.62 77 175 C70.07 175 63.14 175 56 175 C56 177.31 56 179.62 56 182 C51.38 182 46.76 182 42 182 C42 179.69 42 177.38 42 175 C39.69 175 37.38 175 35 175 C35 172.69 35 170.38 35 168 C32.69 168 30.38 168 28 168 C28 165.69 28 163.38 28 161 C25.69 161 23.38 161 21 161 C21 163.31 21 165.62 21 168 C18.69 168 16.38 168 14 168 C14 170.31 14 172.62 14 175 C7.07 175 0.14 175 -7 175 C-7 172.69 -7 170.38 -7 168 C-16.24 168 -25.48 168 -35 168 C-35 170.31 -35 172.62 -35 175 C-41.93 175 -48.86 175 -56 175 C-56 172.69 -56 170.38 -56 168 C-58.31 168 -60.62 168 -63 168 C-63 170.31 -63 172.62 -63 175 C-69.93 175 -76.86 175 -84 175 C-84 170.38 -84 165.76 -84 161 C-81.69 161 -79.38 161 -77 161 C-77 158.69 -77 156.38 -77 154 C-74.69 154 -72.38 154 -70 154 C-70 151.69 -70 149.38 -70 147 C-67.69 147 -65.38 147 -63 147 C-63 142.38 -63 137.76 -63 133 C-60.69 133 -58.38 133 -56 133 C-56 130.69 -56 128.38 -56 126 C-53.69 126 -51.38 126 -49 126 C-49 119.07 -49 112.14 -49 105 C-53.62 105 -58.24 105 -63 105 C-63 100.38 -63 95.76 -63 91 C-58.38 91 -53.76 91 -49 91 C-49 77.14 -49 63.28 -49 49 C-51.31 49 -53.62 49 -56 49 C-56 44.38 -56 39.76 -56 35 C-53.69 35 -51.38 35 -49 35 C-49 32.69 -49 30.38 -49 28 C-51.31 28 -53.62 28 -56 28 C-56 23.38 -56 18.76 -56 14 C-37.52 14 -19.04 14 0 14 C0 9.38 0 4.76 0 0 Z " fill="#AC3232" transform="translate(294,413)"/>
<path d="M0 0 C62.37 0 124.74 0 189 0 C189 4.62 189 9.24 189 14 C216.72 14 244.44 14 273 14 C273 16.31 273 18.62 273 21 C275.31 21 277.62 21 280 21 C280 27.93 280 34.86 280 42 C282.31 42 284.62 42 287 42 C287 44.31 287 46.62 287 49 C275.45 49 263.9 49 252 49 C252 46.69 252 44.38 252 42 C235.83 42 219.66 42 203 42 C203 39.69 203 37.38 203 35 C186.83 35 170.66 35 154 35 C154 32.69 154 30.38 154 28 C151.69 28 149.38 28 147 28 C147 23.38 147 18.76 147 14 C144.69 14 142.38 14 140 14 C140 18.62 140 23.24 140 28 C137.69 28 135.38 28 133 28 C133 30.31 133 32.62 133 35 C82.18 35 31.36 35 -21 35 C-21 37.31 -21 39.62 -21 42 C20.58 42 62.16 42 105 42 C105 44.31 105 46.62 105 49 C109.62 49 114.24 49 119 49 C119 51.31 119 53.62 119 56 C121.31 56 123.62 56 126 56 C126 58.31 126 60.62 126 63 C123.69 63 121.38 63 119 63 C119 65.31 119 67.62 119 70 C72.8 70 26.6 70 -21 70 C-21 65.38 -21 60.76 -21 56 C-23.31 56 -25.62 56 -28 56 C-28 49.07 -28 42.14 -28 35 C-30.31 35 -32.62 35 -35 35 C-35 30.38 -35 25.76 -35 21 C-41.93 21 -48.86 21 -56 21 C-56 18.69 -56 16.38 -56 14 C-37.52 14 -19.04 14 0 14 C0 9.38 0 4.76 0 0 Z " fill="#AC3232" transform="translate(294,413)"/>
<path d="M0 0 C57.75 0 115.5 0 175 0 C175 4.62 175 9.24 175 14 C181.93 14 188.86 14 196 14 C196 27.86 196 41.72 196 56 C133.63 56 71.26 56 7 56 C7 53.69 7 51.38 7 49 C0.07 49 -6.86 49 -14 49 C-14 44.38 -14 39.76 -14 35 C-18.62 35 -23.24 35 -28 35 C-28 32.69 -28 30.38 -28 28 C-25.69 28 -23.38 28 -21 28 C-21 25.69 -21 23.38 -21 21 C-18.69 21 -16.38 21 -14 21 C-14 18.69 -14 16.38 -14 14 C-11.69 14 -9.38 14 -7 14 C-7 11.69 -7 9.38 -7 7 C-4.69 7 -2.38 7 0 7 C0 4.69 0 2.38 0 0 Z " fill="#333132" transform="translate(77,168)"/>
<path d="M0 0 C25.41 0 50.82 0 77 0 C77 2.31 77 4.62 77 7 C79.31 7 81.62 7 84 7 C84 9.31 84 11.62 84 14 C86.31 14 88.62 14 91 14 C91 11.69 91 9.38 91 7 C93.31 7 95.62 7 98 7 C98 4.69 98 2.38 98 0 C107.24 0 116.48 0 126 0 C126 4.62 126 9.24 126 14 C139.86 14 153.72 14 168 14 C168 18.62 168 23.24 168 28 C172.62 28 177.24 28 182 28 C182 30.31 182 32.62 182 35 C186.62 35 191.24 35 196 35 C196 37.31 196 39.62 196 42 C198.31 42 200.62 42 203 42 C203 44.31 203 46.62 203 49 C207.62 49 212.24 49 217 49 C217 51.31 217 53.62 217 56 C119.98 56 22.96 56 -77 56 C-77 53.69 -77 51.38 -77 49 C-74.69 49 -72.38 49 -70 49 C-70 46.69 -70 44.38 -70 42 C-67.69 42 -65.38 42 -63 42 C-63 39.69 -63 37.38 -63 35 C-44.52 35 -26.04 35 -7 35 C-7 30.38 -7 25.76 -7 21 C9.17 21 25.34 21 42 21 C42 18.69 42 16.38 42 14 C28.14 14 14.28 14 0 14 C0 9.38 0 4.76 0 0 Z " fill="#AC3232" transform="translate(329,266)"/>
<path d="M0 0 C30.03 0 60.06 0 91 0 C91 2.31 91 4.62 91 7 C88.69 7 86.38 7 84 7 C84 9.31 84 11.62 84 14 C79.38 14 74.76 14 70 14 C70 16.31 70 18.62 70 21 C63.07 21 56.14 21 49 21 C49 23.31 49 25.62 49 28 C51.31 28 53.62 28 56 28 C56 32.62 56 37.24 56 42 C58.31 42 60.62 42 63 42 C63 48.93 63 55.86 63 63 C65.31 63 67.62 63 70 63 C70 67.62 70 72.24 70 77 C72.31 77 74.62 77 77 77 C77 79.31 77 81.62 77 84 C79.31 84 81.62 84 84 84 C84 86.31 84 88.62 84 91 C58.59 91 33.18 91 7 91 C7 93.31 7 95.62 7 98 C9.31 98 11.62 98 14 98 C14 109.55 14 121.1 14 133 C11.69 133 9.38 133 7 133 C7 130.69 7 128.38 7 126 C0.07 126 -6.86 126 -14 126 C-14 123.69 -14 121.38 -14 119 C-16.31 119 -18.62 119 -21 119 C-21 116.69 -21 114.38 -21 112 C-18.69 112 -16.38 112 -14 112 C-14 109.69 -14 107.38 -14 105 C-16.31 105 -18.62 105 -21 105 C-21 102.69 -21 100.38 -21 98 C-16.38 98 -11.76 98 -7 98 C-7 95.69 -7 93.38 -7 91 C-16.24 91 -25.48 91 -35 91 C-35 88.69 -35 86.38 -35 84 C-32.69 84 -30.38 84 -28 84 C-28 70.14 -28 56.28 -28 42 C-30.31 42 -32.62 42 -35 42 C-35 37.38 -35 32.76 -35 28 C-32.69 28 -30.38 28 -28 28 C-28 25.69 -28 23.38 -28 21 C-23.38 21 -18.76 21 -14 21 C-14 16.38 -14 11.76 -14 7 C-9.38 7 -4.76 7 0 7 C0 4.69 0 2.38 0 0 Z " fill="#FFFFFF" transform="translate(301,140)"/>
<path d="M0 0 C6.93 0 13.86 0 21 0 C21 4.62 21 9.24 21 14 C23.31 14 25.62 14 28 14 C28 20.93 28 27.86 28 35 C30.31 35 32.62 35 35 35 C35 39.62 35 44.24 35 49 C32.69 49 30.38 49 28 49 C28 53.62 28 58.24 28 63 C30.31 63 32.62 63 35 63 C35 67.62 35 72.24 35 77 C30.38 77 25.76 77 21 77 C21 83.93 21 90.86 21 98 C23.31 98 25.62 98 28 98 C28 100.31 28 102.62 28 105 C23.38 105 18.76 105 14 105 C14 107.31 14 109.62 14 112 C11.69 112 9.38 112 7 112 C7 116.62 7 121.24 7 126 C9.31 126 11.62 126 14 126 C14 130.62 14 135.24 14 140 C30.17 140 46.34 140 63 140 C63 137.69 63 135.38 63 133 C67.62 133 72.24 133 77 133 C77 130.69 77 128.38 77 126 C81.62 126 86.24 126 91 126 C91 130.62 91 135.24 91 140 C93.31 140 95.62 140 98 140 C98 142.31 98 144.62 98 147 C104.93 147 111.86 147 119 147 C119 144.69 119 142.38 119 140 C121.31 140 123.62 140 126 140 C126 135.38 126 130.76 126 126 C116.76 126 107.52 126 98 126 C98 123.69 98 121.38 98 119 C109.55 119 121.1 119 133 119 C133 121.31 133 123.62 133 126 C135.31 126 137.62 126 140 126 C140 123.69 140 121.38 140 119 C146.93 119 153.86 119 161 119 C161 116.69 161 114.38 161 112 C163.31 112 165.62 112 168 112 C168 109.69 168 107.38 168 105 C174.93 105 181.86 105 189 105 C189 107.31 189 109.62 189 112 C191.31 112 193.62 112 196 112 C196 114.31 196 116.62 196 119 C193.69 119 191.38 119 189 119 C189 123.62 189 128.24 189 133 C186.69 133 184.38 133 182 133 C182 135.31 182 137.62 182 140 C177.38 140 172.76 140 168 140 C168 137.69 168 135.38 168 133 C163.38 133 158.76 133 154 133 C154 135.31 154 137.62 154 140 C149.38 140 144.76 140 140 140 C140 142.31 140 144.62 140 147 C137.69 147 135.38 147 133 147 C133 149.31 133 151.62 133 154 C126.07 154 119.14 154 112 154 C112 156.31 112 158.62 112 161 C107.38 161 102.76 161 98 161 C98 158.69 98 156.38 98 154 C95.69 154 93.38 154 91 154 C91 151.69 91 149.38 91 147 C88.69 147 86.38 147 84 147 C84 144.69 84 142.38 84 140 C81.69 140 79.38 140 77 140 C77 142.31 77 144.62 77 147 C74.69 147 72.38 147 70 147 C70 149.31 70 151.62 70 154 C63.07 154 56.14 154 49 154 C49 151.69 49 149.38 49 147 C39.76 147 30.52 147 21 147 C21 149.31 21 151.62 21 154 C14.07 154 7.14 154 0 154 C0 151.69 0 149.38 0 147 C-2.31 147 -4.62 147 -7 147 C-7 149.31 -7 151.62 -7 154 C-13.93 154 -20.86 154 -28 154 C-28 149.38 -28 144.76 -28 140 C-25.69 140 -23.38 140 -21 140 C-21 137.69 -21 135.38 -21 133 C-18.69 133 -16.38 133 -14 133 C-14 130.69 -14 128.38 -14 126 C-11.69 126 -9.38 126 -7 126 C-7 121.38 -7 116.76 -7 112 C-4.69 112 -2.38 112 0 112 C0 109.69 0 107.38 0 105 C2.31 105 4.62 105 7 105 C7 98.07 7 91.14 7 84 C2.38 84 -2.24 84 -7 84 C-7 79.38 -7 74.76 -7 70 C-2.38 70 2.24 70 7 70 C7 56.14 7 42.28 7 28 C4.69 28 2.38 28 0 28 C0 23.38 0 18.76 0 14 C2.31 14 4.62 14 7 14 C7 11.69 7 9.38 7 7 C4.69 7 2.38 7 0 7 C0 4.69 0 2.38 0 0 Z " fill="#595652" transform="translate(238,434)"/>
<path d="M0 0 C11.55 0 23.1 0 35 0 C35 2.31 35 4.62 35 7 C39.62 7 44.24 7 49 7 C49 9.31 49 11.62 49 14 C51.31 14 53.62 14 56 14 C56 18.62 56 23.24 56 28 C58.31 28 60.62 28 63 28 C63 30.31 63 32.62 63 35 C65.31 35 67.62 35 70 35 C70 39.62 70 44.24 70 49 C67.69 49 65.38 49 63 49 C63 58.24 63 67.48 63 77 C42.21 77 21.42 77 0 77 C0 74.69 0 72.38 0 70 C-2.31 70 -4.62 70 -7 70 C-7 67.69 -7 65.38 -7 63 C-9.31 63 -11.62 63 -14 63 C-14 60.69 -14 58.38 -14 56 C-16.31 56 -18.62 56 -21 56 C-21 53.69 -21 51.38 -21 49 C-23.31 49 -25.62 49 -28 49 C-28 46.69 -28 44.38 -28 42 C-30.31 42 -32.62 42 -35 42 C-35 37.38 -35 32.76 -35 28 C-37.31 28 -39.62 28 -42 28 C-42 25.69 -42 23.38 -42 21 C-35.07 21 -28.14 21 -21 21 C-21 18.69 -21 16.38 -21 14 C-16.38 14 -11.76 14 -7 14 C-7 11.69 -7 9.38 -7 7 C-4.69 7 -2.38 7 0 7 C0 4.69 0 2.38 0 0 Z " fill="#A3A3A3" transform="translate(392,140)"/>
<path d="M0 0 C2.31 0 4.62 0 7 0 C7 4.62 7 9.24 7 14 C9.31 14 11.62 14 14 14 C14 16.31 14 18.62 14 21 C30.17 21 46.34 21 63 21 C63 23.31 63 25.62 63 28 C79.17 28 95.34 28 112 28 C112 30.31 112 32.62 112 35 C125.86 35 139.72 35 154 35 C154 37.31 154 39.62 154 42 C137.83 42 121.66 42 105 42 C105 39.69 105 37.38 105 35 C88.83 35 72.66 35 56 35 C56 32.69 56 30.38 56 28 C51.38 28 46.76 28 42 28 C42 30.31 42 32.62 42 35 C37.38 35 32.76 35 28 35 C28 37.31 28 39.62 28 42 C25.69 42 23.38 42 21 42 C21 44.31 21 46.62 21 49 C23.31 49 25.62 49 28 49 C28 51.31 28 53.62 28 56 C41.86 56 55.72 56 70 56 C70 58.31 70 60.62 70 63 C58.45 63 46.9 63 35 63 C35 65.31 35 67.62 35 70 C30.38 70 25.76 70 21 70 C21 67.69 21 65.38 21 63 C9.45 63 -2.1 63 -14 63 C-14 65.31 -14 67.62 -14 70 C-18.62 70 -23.24 70 -28 70 C-28 67.69 -28 65.38 -28 63 C-69.58 63 -111.16 63 -154 63 C-154 60.69 -154 58.38 -154 56 C-110.11 56 -66.22 56 -21 56 C-21 53.69 -21 51.38 -21 49 C-18.69 49 -16.38 49 -14 49 C-14 46.69 -14 44.38 -14 42 C-16.31 42 -18.62 42 -21 42 C-21 39.69 -21 37.38 -21 35 C-25.62 35 -30.24 35 -35 35 C-35 32.69 -35 30.38 -35 28 C-76.58 28 -118.16 28 -161 28 C-161 25.69 -161 23.38 -161 21 C-110.18 21 -59.36 21 -7 21 C-7 18.69 -7 16.38 -7 14 C-4.69 14 -2.38 14 0 14 C0 9.38 0 4.76 0 0 Z " fill="#333132" transform="translate(434,427)"/>
<path d="M0 0 C25.41 0 50.82 0 77 0 C77 2.31 77 4.62 77 7 C79.31 7 81.62 7 84 7 C84 9.31 84 11.62 84 14 C86.31 14 88.62 14 91 14 C91 11.69 91 9.38 91 7 C93.31 7 95.62 7 98 7 C98 4.69 98 2.38 98 0 C107.24 0 116.48 0 126 0 C126 4.62 126 9.24 126 14 C139.86 14 153.72 14 168 14 C168 18.62 168 23.24 168 28 C172.62 28 177.24 28 182 28 C182 30.31 182 32.62 182 35 C119.63 35 57.26 35 -7 35 C-7 30.38 -7 25.76 -7 21 C9.17 21 25.34 21 42 21 C42 18.69 42 16.38 42 14 C28.14 14 14.28 14 0 14 C0 9.38 0 4.76 0 0 Z " fill="#AC3232" transform="translate(329,266)"/>
<path d="M0 0 C2.31 0 4.62 0 7 0 C7 9.24 7 18.48 7 28 C9.31 28 11.62 28 14 28 C14 30.31 14 32.62 14 35 C18.62 35 23.24 35 28 35 C28 39.62 28 44.24 28 49 C32.62 49 37.24 49 42 49 C42 44.38 42 39.76 42 35 C46.62 35 51.24 35 56 35 C56 32.69 56 30.38 56 28 C60.62 28 65.24 28 70 28 C70 25.69 70 23.38 70 21 C72.31 21 74.62 21 77 21 C77 34.86 77 48.72 77 63 C67.76 63 58.52 63 49 63 C49 60.69 49 58.38 49 56 C44.38 56 39.76 56 35 56 C35 58.31 35 60.62 35 63 C9.59 63 -15.82 63 -42 63 C-42 65.31 -42 67.62 -42 70 C-44.31 70 -46.62 70 -49 70 C-49 72.31 -49 74.62 -49 77 C-51.31 77 -53.62 77 -56 77 C-56 79.31 -56 81.62 -56 84 C-58.31 84 -60.62 84 -63 84 C-63 77.07 -63 70.14 -63 63 C-65.31 63 -67.62 63 -70 63 C-70 49.14 -70 35.28 -70 21 C-67.69 21 -65.38 21 -63 21 C-63 23.31 -63 25.62 -63 28 C-60.69 28 -58.38 28 -56 28 C-56 30.31 -56 32.62 -56 35 C-53.69 35 -51.38 35 -49 35 C-49 39.62 -49 44.24 -49 49 C-44.38 49 -39.76 49 -35 49 C-35 51.31 -35 53.62 -35 56 C-32.69 56 -30.38 56 -28 56 C-28 49.07 -28 42.14 -28 35 C-23.38 35 -18.76 35 -14 35 C-14 32.69 -14 30.38 -14 28 C-11.69 28 -9.38 28 -7 28 C-7 23.38 -7 18.76 -7 14 C-4.69 14 -2.38 14 0 14 C0 9.38 0 4.76 0 0 Z " fill="#CFB056" transform="translate(357,49)"/>
<path d="M0 0 C4.62 0 9.24 0 14 0 C14 2.31 14 4.62 14 7 C30.17 7 46.34 7 63 7 C63 9.31 63 11.62 63 14 C79.17 14 95.34 14 112 14 C112 16.31 112 18.62 112 21 C118.93 21 125.86 21 133 21 C133 23.31 133 25.62 133 28 C130.69 28 128.38 28 126 28 C126 30.31 126 32.62 126 35 C130.62 35 135.24 35 140 35 C140 37.31 140 39.62 140 42 C142.31 42 144.62 42 147 42 C147 44.31 147 46.62 147 49 C126.21 49 105.42 49 84 49 C84 46.69 84 44.38 84 42 C74.76 42 65.52 42 56 42 C56 39.69 56 37.38 56 35 C53.69 35 51.38 35 49 35 C49 37.31 49 39.62 49 42 C42.07 42 35.14 42 28 42 C28 37.38 28 32.76 28 28 C14.14 28 0.28 28 -14 28 C-14 25.69 -14 23.38 -14 21 C-16.31 21 -18.62 21 -21 21 C-21 18.69 -21 16.38 -21 14 C-18.69 14 -16.38 14 -14 14 C-14 11.69 -14 9.38 -14 7 C-9.38 7 -4.76 7 0 7 C0 4.69 0 2.38 0 0 Z " fill="#AC3232" transform="translate(476,455)"/>
<path d="M0 0 C9.24 0 18.48 0 28 0 C28 13.86 28 27.72 28 42 C-34.37 42 -96.74 42 -161 42 C-161 39.69 -161 37.38 -161 35 C-167.93 35 -174.86 35 -182 35 C-182 30.38 -182 25.76 -182 21 C-175.07 21 -168.14 21 -161 21 C-161 23.31 -161 25.62 -161 28 C-158.69 28 -156.38 28 -154 28 C-154 30.31 -154 32.62 -154 35 C-151.69 35 -149.38 35 -147 35 C-147 32.69 -147 30.38 -147 28 C-144.69 28 -142.38 28 -140 28 C-140 25.69 -140 23.38 -140 21 C-128.45 21 -116.9 21 -105 21 C-105 23.31 -105 25.62 -105 28 C-102.69 28 -100.38 28 -98 28 C-98 30.31 -98 32.62 -98 35 C-95.69 35 -93.38 35 -91 35 C-91 32.69 -91 30.38 -91 28 C-88.69 28 -86.38 28 -84 28 C-84 25.69 -84 23.38 -84 21 C-81.69 21 -79.38 21 -77 21 C-77 18.69 -77 16.38 -77 14 C-70.07 14 -63.14 14 -56 14 C-56 16.31 -56 18.62 -56 21 C-53.69 21 -51.38 21 -49 21 C-49 23.31 -49 25.62 -49 28 C-46.69 28 -44.38 28 -42 28 C-42 30.31 -42 32.62 -42 35 C-39.69 35 -37.38 35 -35 35 C-35 32.69 -35 30.38 -35 28 C-32.69 28 -30.38 28 -28 28 C-28 25.69 -28 23.38 -28 21 C-25.69 21 -23.38 21 -21 21 C-21 18.69 -21 16.38 -21 14 C-18.69 14 -16.38 14 -14 14 C-14 16.31 -14 18.62 -14 21 C-9.38 21 -4.76 21 0 21 C0 14.07 0 7.14 0 0 Z " fill="#4D4D4D" transform="translate(245,182)"/>
<path d="M0 0 C18.48 0 36.96 0 56 0 C56 18.48 56 36.96 56 56 C53.69 56 51.38 56 49 56 C49 72.17 49 88.34 49 105 C46.69 105 44.38 105 42 105 C42 102.69 42 100.38 42 98 C39.69 98 37.38 98 35 98 C35 95.69 35 93.38 35 91 C32.69 91 30.38 91 28 91 C28 88.69 28 86.38 28 84 C25.69 84 23.38 84 21 84 C21 86.31 21 88.62 21 91 C18.69 91 16.38 91 14 91 C14 81.76 14 72.52 14 63 C4.76 63 -4.48 63 -14 63 C-14 60.69 -14 58.38 -14 56 C-18.62 56 -23.24 56 -28 56 C-28 46.76 -28 37.52 -28 28 C-25.69 28 -23.38 28 -21 28 C-21 32.62 -21 37.24 -21 42 C-14.07 42 -7.14 42 0 42 C0 44.31 0 46.62 0 49 C11.55 49 23.1 49 35 49 C35 46.69 35 44.38 35 42 C37.31 42 39.62 42 42 42 C42 37.38 42 32.76 42 28 C28.14 28 14.28 28 0 28 C0 18.76 0 9.52 0 0 Z " fill="#FFFFFF" transform="translate(588,161)"/>
<path d="M0 0 C4.62 0 9.24 0 14 0 C14 4.62 14 9.24 14 14 C37.1 14 60.2 14 84 14 C84 16.31 84 18.62 84 21 C81.69 21 79.38 21 77 21 C77 23.31 77 25.62 77 28 C74.69 28 72.38 28 70 28 C70 30.31 70 32.62 70 35 C67.69 35 65.38 35 63 35 C63 37.31 63 39.62 63 42 C60.69 42 58.38 42 56 42 C56 39.69 56 37.38 56 35 C49.07 35 42.14 35 35 35 C35 30.38 35 25.76 35 21 C30.38 21 25.76 21 21 21 C21 23.31 21 25.62 21 28 C23.31 28 25.62 28 28 28 C28 30.31 28 32.62 28 35 C18.76 35 9.52 35 0 35 C0 37.31 0 39.62 0 42 C-2.31 42 -4.62 42 -7 42 C-7 44.31 -7 46.62 -7 49 C-9.31 49 -11.62 49 -14 49 C-14 46.69 -14 44.38 -14 42 C-16.31 42 -18.62 42 -21 42 C-21 39.69 -21 37.38 -21 35 C-48.72 35 -76.44 35 -105 35 C-105 30.38 -105 25.76 -105 21 C-95.76 21 -86.52 21 -77 21 C-77 18.69 -77 16.38 -77 14 C-60.83 14 -44.66 14 -28 14 C-28 11.69 -28 9.38 -28 7 C-18.76 7 -9.52 7 0 7 C0 4.69 0 2.38 0 0 Z " fill="#8B2626" transform="translate(427,231)"/>
<path d="M0 0 C2.31 0 4.62 0 7 0 C7 2.31 7 4.62 7 7 C9.31 7 11.62 7 14 7 C14 9.31 14 11.62 14 14 C18.62 14 23.24 14 28 14 C28 11.69 28 9.38 28 7 C32.62 7 37.24 7 42 7 C42 4.69 42 2.38 42 0 C51.24 0 60.48 0 70 0 C70 2.31 70 4.62 70 7 C76.93 7 83.86 7 91 7 C91 4.69 91 2.38 91 0 C93.31 0 95.62 0 98 0 C98 2.31 98 4.62 98 7 C102.62 7 107.24 7 112 7 C112 4.69 112 2.38 112 0 C121.24 0 130.48 0 140 0 C140 2.31 140 4.62 140 7 C149.24 7 158.48 7 168 7 C168 9.31 168 11.62 168 14 C170.31 14 172.62 14 175 14 C175 16.31 175 18.62 175 21 C165.76 21 156.52 21 147 21 C147 18.69 147 16.38 147 14 C135.45 14 123.9 14 112 14 C112 16.31 112 18.62 112 21 C102.76 21 93.52 21 84 21 C84 23.31 84 25.62 84 28 C79.38 28 74.76 28 70 28 C70 25.69 70 23.38 70 21 C65.38 21 60.76 21 56 21 C56 18.69 56 16.38 56 14 C53.69 14 51.38 14 49 14 C49 16.31 49 18.62 49 21 C46.69 21 44.38 21 42 21 C42 23.31 42 25.62 42 28 C39.69 28 37.38 28 35 28 C35 30.31 35 32.62 35 35 C30.38 35 25.76 35 21 35 C21 32.69 21 30.38 21 28 C18.69 28 16.38 28 14 28 C14 25.69 14 23.38 14 21 C11.69 21 9.38 21 7 21 C7 18.69 7 16.38 7 14 C4.69 14 2.38 14 0 14 C0 9.38 0 4.76 0 0 Z " fill="#595652" transform="translate(434,553)"/>
<path d="M0 0 C4.62 0 9.24 0 14 0 C14 6.93 14 13.86 14 21 C25.55 21 37.1 21 49 21 C49 30.24 49 39.48 49 49 C35.14 49 21.28 49 7 49 C7 60.55 7 72.1 7 84 C9.31 84 11.62 84 14 84 C14 90.93 14 97.86 14 105 C9.38 105 4.76 105 0 105 C0 100.38 0 95.76 0 91 C-2.31 91 -4.62 91 -7 91 C-7 65.59 -7 40.18 -7 14 C-4.69 14 -2.38 14 0 14 C0 9.38 0 4.76 0 0 Z " fill="#AC3232" transform="translate(168,315)"/>
<path d="M0 0 C4.62 0 9.24 0 14 0 C14 2.31 14 4.62 14 7 C20.93 7 27.86 7 35 7 C35 13.93 35 20.86 35 28 C21.14 28 7.28 28 -7 28 C-7 25.69 -7 23.38 -7 21 C-23.17 21 -39.34 21 -56 21 C-56 23.31 -56 25.62 -56 28 C-67.55 28 -79.1 28 -91 28 C-91 25.69 -91 23.38 -91 21 C-88.69 21 -86.38 21 -84 21 C-84 18.69 -84 16.38 -84 14 C-81.69 14 -79.38 14 -77 14 C-77 11.69 -77 9.38 -77 7 C-51.59 7 -26.18 7 0 7 C0 4.69 0 2.38 0 0 Z " fill="#A38A3F" transform="translate(392,105)"/>
<path d="M0 0 C2.31 0 4.62 0 7 0 C7 2.31 7 4.62 7 7 C34.72 7 62.44 7 91 7 C91 9.31 91 11.62 91 14 C100.24 14 109.48 14 119 14 C119 18.62 119 23.24 119 28 C116.69 28 114.38 28 112 28 C112 30.31 112 32.62 112 35 C105.07 35 98.14 35 91 35 C91 32.69 91 30.38 91 28 C88.69 28 86.38 28 84 28 C84 23.38 84 18.76 84 14 C79.38 14 74.76 14 70 14 C70 16.31 70 18.62 70 21 C65.38 21 60.76 21 56 21 C56 23.31 56 25.62 56 28 C39.83 28 23.66 28 7 28 C7 23.38 7 18.76 7 14 C4.69 14 2.38 14 0 14 C0 9.38 0 4.76 0 0 Z " fill="#AC3232" transform="translate(245,546)"/>
<path d="M0 0 C13.86 0 27.72 0 42 0 C42 11.55 42 23.1 42 35 C28.14 35 14.28 35 0 35 C0 23.45 0 11.9 0 0 Z " fill="#A38A3F" transform="translate(553,364)"/>
<path d="M0 0 C13.86 0 27.72 0 42 0 C42 11.55 42 23.1 42 35 C28.14 35 14.28 35 0 35 C0 23.45 0 11.9 0 0 Z " fill="#333132" transform="translate(511,364)"/>
<path d="M0 0 C13.86 0 27.72 0 42 0 C42 11.55 42 23.1 42 35 C28.14 35 14.28 35 0 35 C0 23.45 0 11.9 0 0 Z " fill="#A38A3F" transform="translate(469,364)"/>
<path d="M0 0 C13.86 0 27.72 0 42 0 C42 11.55 42 23.1 42 35 C28.14 35 14.28 35 0 35 C0 23.45 0 11.9 0 0 Z " fill="#333132" transform="translate(427,364)"/>
<path d="M0 0 C13.86 0 27.72 0 42 0 C42 11.55 42 23.1 42 35 C28.14 35 14.28 35 0 35 C0 23.45 0 11.9 0 0 Z " fill="#A38A3F" transform="translate(385,364)"/>
<path d="M0 0 C13.86 0 27.72 0 42 0 C42 11.55 42 23.1 42 35 C28.14 35 14.28 35 0 35 C0 23.45 0 11.9 0 0 Z " fill="#333132" transform="translate(343,364)"/>
<path d="M0 0 C13.86 0 27.72 0 42 0 C42 11.55 42 23.1 42 35 C28.14 35 14.28 35 0 35 C0 23.45 0 11.9 0 0 Z " fill="#A38A3F" transform="translate(301,364)"/>
<path d="M0 0 C13.86 0 27.72 0 42 0 C42 11.55 42 23.1 42 35 C28.14 35 14.28 35 0 35 C0 23.45 0 11.9 0 0 Z " fill="#333132" transform="translate(259,364)"/>
<path d="M0 0 C13.86 0 27.72 0 42 0 C42 11.55 42 23.1 42 35 C28.14 35 14.28 35 0 35 C0 23.45 0 11.9 0 0 Z " fill="#A38A3F" transform="translate(217,364)"/>
<path d="M0 0 C13.86 0 27.72 0 42 0 C42 11.55 42 23.1 42 35 C28.14 35 14.28 35 0 35 C0 23.45 0 11.9 0 0 Z " fill="#333132" transform="translate(175,364)"/>
<path d="M0 0 C69.3 0 138.6 0 210 0 C210 2.31 210 4.62 210 7 C140.7 7 71.4 7 0 7 C0 4.69 0 2.38 0 0 Z " fill="#333132" transform="translate(301,301)"/>
<path d="M0 0 C4.62 0 9.24 0 14 0 C14 2.31 14 4.62 14 7 C30.17 7 46.34 7 63 7 C63 9.31 63 11.62 63 14 C60.69 14 58.38 14 56 14 C56 16.31 56 18.62 56 21 C44.45 21 32.9 21 21 21 C21 23.31 21 25.62 21 28 C9.45 28 -2.1 28 -14 28 C-14 25.69 -14 23.38 -14 21 C-16.31 21 -18.62 21 -21 21 C-21 18.69 -21 16.38 -21 14 C-18.69 14 -16.38 14 -14 14 C-14 11.69 -14 9.38 -14 7 C-9.38 7 -4.76 7 0 7 C0 4.69 0 2.38 0 0 Z " fill="#8B2626" transform="translate(476,455)"/>
<path d="M0 0 C41.58 0 83.16 0 126 0 C126 2.31 126 4.62 126 7 C123.69 7 121.38 7 119 7 C119 9.31 119 11.62 119 14 C95.9 14 72.8 14 49 14 C49 11.69 49 9.38 49 7 C32.83 7 16.66 7 0 7 C0 4.69 0 2.38 0 0 Z " fill="#8B2626" transform="translate(308,434)"/>
<path d="M0 0 C62.37 0 124.74 0 189 0 C189 2.31 189 4.62 189 7 C126.63 7 64.26 7 0 7 C0 4.69 0 2.38 0 0 Z " fill="#8B2626" transform="translate(294,413)"/>
<path d="M0 0 C4.62 0 9.24 0 14 0 C14 2.31 14 4.62 14 7 C20.93 7 27.86 7 35 7 C35 11.62 35 16.24 35 21 C32.69 21 30.38 21 28 21 C28 23.31 28 25.62 28 28 C25.69 28 23.38 28 21 28 C21 30.31 21 32.62 21 35 C18.69 35 16.38 35 14 35 C14 37.31 14 39.62 14 42 C9.38 42 4.76 42 0 42 C0 39.69 0 37.38 0 35 C-2.31 35 -4.62 35 -7 35 C-7 30.38 -7 25.76 -7 21 C-9.31 21 -11.62 21 -14 21 C-14 16.38 -14 11.76 -14 7 C-9.38 7 -4.76 7 0 7 C0 4.69 0 2.38 0 0 Z " fill="#FFFFFF" transform="translate(553,231)"/>
<path d="M0 0 C11.55 0 23.1 0 35 0 C35 11.55 35 23.1 35 35 C21.14 35 7.28 35 -7 35 C-7 32.69 -7 30.38 -7 28 C-4.69 28 -2.38 28 0 28 C0 18.76 0 9.52 0 0 Z " fill="#333132" transform="translate(476,168)"/>
<path d="M0 0 C57.75 0 115.5 0 175 0 C175 2.31 175 4.62 175 7 C117.25 7 59.5 7 0 7 C0 4.69 0 2.38 0 0 Z " fill="#A38A3F" transform="translate(84,224)"/>
<path d="M0 0 C6.93 0 13.86 0 21 0 C21 2.31 21 4.62 21 7 C23.31 7 25.62 7 28 7 C28 9.31 28 11.62 28 14 C30.31 14 32.62 14 35 14 C35 18.62 35 23.24 35 28 C32.69 28 30.38 28 28 28 C28 30.31 28 32.62 28 35 C25.69 35 23.38 35 21 35 C21 37.31 21 39.62 21 42 C16.38 42 11.76 42 7 42 C7 39.69 7 37.38 7 35 C4.69 35 2.38 35 0 35 C0 32.69 0 30.38 0 28 C-2.31 28 -4.62 28 -7 28 C-7 23.38 -7 18.76 -7 14 C-4.69 14 -2.38 14 0 14 C0 9.38 0 4.76 0 0 Z " fill="#8B8B8B" transform="translate(399,161)"/>
<path d="M0 0 C16.17 0 32.34 0 49 0 C49 2.31 49 4.62 49 7 C46.69 7 44.38 7 42 7 C42 9.31 42 11.62 42 14 C39.69 14 37.38 14 35 14 C35 16.31 35 18.62 35 21 C32.69 21 30.38 21 28 21 C28 23.31 28 25.62 28 28 C23.38 28 18.76 28 14 28 C14 30.31 14 32.62 14 35 C9.38 35 4.76 35 0 35 C0 23.45 0 11.9 0 0 Z " fill="#333132" transform="translate(595,364)"/>
<path d="M0 0 C13.86 0 27.72 0 42 0 C42 9.24 42 18.48 42 28 C28.14 28 14.28 28 0 28 C0 18.76 0 9.52 0 0 Z " fill="#333132" transform="translate(553,336)"/>
<path d="M0 0 C13.86 0 27.72 0 42 0 C42 9.24 42 18.48 42 28 C28.14 28 14.28 28 0 28 C0 18.76 0 9.52 0 0 Z " fill="#CFB056" transform="translate(511,336)"/>
<path d="M0 0 C13.86 0 27.72 0 42 0 C42 9.24 42 18.48 42 28 C28.14 28 14.28 28 0 28 C0 18.76 0 9.52 0 0 Z " fill="#333132" transform="translate(469,336)"/>
<path d="M0 0 C13.86 0 27.72 0 42 0 C42 9.24 42 18.48 42 28 C28.14 28 14.28 28 0 28 C0 18.76 0 9.52 0 0 Z " fill="#CFB056" transform="translate(427,336)"/>
<path d="M0 0 C13.86 0 27.72 0 42 0 C42 9.24 42 18.48 42 28 C28.14 28 14.28 28 0 28 C0 18.76 0 9.52 0 0 Z " fill="#333132" transform="translate(385,336)"/>
<path d="M0 0 C13.86 0 27.72 0 42 0 C42 9.24 42 18.48 42 28 C28.14 28 14.28 28 0 28 C0 18.76 0 9.52 0 0 Z " fill="#CFB056" transform="translate(343,336)"/>
<path d="M0 0 C13.86 0 27.72 0 42 0 C42 9.24 42 18.48 42 28 C28.14 28 14.28 28 0 28 C0 18.76 0 9.52 0 0 Z " fill="#333132" transform="translate(301,336)"/>
<path d="M0 0 C13.86 0 27.72 0 42 0 C42 9.24 42 18.48 42 28 C28.14 28 14.28 28 0 28 C0 18.76 0 9.52 0 0 Z " fill="#CFB056" transform="translate(259,336)"/>
<path d="M0 0 C13.86 0 27.72 0 42 0 C42 9.24 42 18.48 42 28 C28.14 28 14.28 28 0 28 C0 18.76 0 9.52 0 0 Z " fill="#333132" transform="translate(217,336)"/>
<path d="M0 0 C13.86 0 27.72 0 42 0 C42 9.24 42 18.48 42 28 C28.14 28 14.28 28 0 28 C0 18.76 0 9.52 0 0 Z " fill="#CFB056" transform="translate(175,336)"/>
<path d="M0 0 C2.31 0 4.62 0 7 0 C7 9.24 7 18.48 7 28 C4.69 28 2.38 28 0 28 C0 30.31 0 32.62 0 35 C-11.55 35 -23.1 35 -35 35 C-35 32.69 -35 30.38 -35 28 C-37.31 28 -39.62 28 -42 28 C-42 23.38 -42 18.76 -42 14 C-32.76 14 -23.52 14 -14 14 C-14 11.69 -14 9.38 -14 7 C-9.38 7 -4.76 7 0 7 C0 4.69 0 2.38 0 0 Z " fill="#AC3232" transform="translate(623,399)"/>
<path d="M0 0 C25.41 0 50.82 0 77 0 C77 2.31 77 4.62 77 7 C79.31 7 81.62 7 84 7 C84 9.31 84 11.62 84 14 C56.28 14 28.56 14 0 14 C0 9.38 0 4.76 0 0 Z " fill="#D95763" transform="translate(329,266)"/>
<path d="M0 0 C20.79 0 41.58 0 63 0 C63 2.31 63 4.62 63 7 C60.69 7 58.38 7 56 7 C56 9.31 56 11.62 56 14 C53.69 14 51.38 14 49 14 C49 16.31 49 18.62 49 21 C46.69 21 44.38 21 42 21 C42 23.31 42 25.62 42 28 C39.69 28 37.38 28 35 28 C35 25.69 35 23.38 35 21 C28.07 21 21.14 21 14 21 C14 16.38 14 11.76 14 7 C9.38 7 4.76 7 0 7 C0 4.69 0 2.38 0 0 Z " fill="#141414" transform="translate(448,245)"/>
<path d="M0 0 C2.31 0 4.62 0 7 0 C7 2.31 7 4.62 7 7 C9.31 7 11.62 7 14 7 C14 9.31 14 11.62 14 14 C16.31 14 18.62 14 21 14 C21 23.24 21 32.48 21 42 C23.31 42 25.62 42 28 42 C28 44.31 28 46.62 28 49 C25.69 49 23.38 49 21 49 C21 51.31 21 53.62 21 56 C18.69 56 16.38 56 14 56 C14 58.31 14 60.62 14 63 C11.69 63 9.38 63 7 63 C7 56.07 7 49.14 7 42 C4.69 42 2.38 42 0 42 C0 28.14 0 14.28 0 0 Z " fill="#F0D37E" transform="translate(287,70)"/>
<path d="M0 0 C34.65 0 69.3 0 105 0 C105 2.31 105 4.62 105 7 C72.66 7 40.32 7 7 7 C7 9.31 7 11.62 7 14 C-4.55 14 -16.1 14 -28 14 C-28 11.69 -28 9.38 -28 7 C-18.76 7 -9.52 7 0 7 C0 4.69 0 2.38 0 0 Z " fill="#333132" transform="translate(462,511)"/>
<path d="M0 0 C27.72 0 55.44 0 84 0 C84 2.31 84 4.62 84 7 C74.76 7 65.52 7 56 7 C56 9.31 56 11.62 56 14 C51.38 14 46.76 14 42 14 C42 11.69 42 9.38 42 7 C39.69 7 37.38 7 35 7 C35 9.31 35 11.62 35 14 C28.07 14 21.14 14 14 14 C14 11.69 14 9.38 14 7 C9.38 7 4.76 7 0 7 C0 4.69 0 2.38 0 0 Z " fill="#333132" transform="translate(490,546)"/>
<path d="M0 0 C4.62 0 9.24 0 14 0 C14 2.31 14 4.62 14 7 C16.31 7 18.62 7 21 7 C21 9.31 21 11.62 21 14 C23.31 14 25.62 14 28 14 C28 16.31 28 18.62 28 21 C30.31 21 32.62 21 35 21 C35 25.62 35 30.24 35 35 C30.38 35 25.76 35 21 35 C21 32.69 21 30.38 21 28 C14.07 28 7.14 28 0 28 C0 25.69 0 23.38 0 21 C-2.31 21 -4.62 21 -7 21 C-7 18.69 -7 16.38 -7 14 C-4.69 14 -2.38 14 0 14 C0 9.38 0 4.76 0 0 Z " fill="#4C251E" transform="translate(511,259)"/>
<path d="M0 0 C13.86 0 27.72 0 42 0 C42 4.62 42 9.24 42 14 C39.69 14 37.38 14 35 14 C35 16.31 35 18.62 35 21 C23.45 21 11.9 21 0 21 C0 14.07 0 7.14 0 0 Z " fill="#4D4D4D" transform="translate(469,203)"/>
<path d="M0 0 C6.93 0 13.86 0 21 0 C21 13.86 21 27.72 21 42 C16.38 42 11.76 42 7 42 C7 39.69 7 37.38 7 35 C4.69 35 2.38 35 0 35 C0 23.45 0 11.9 0 0 Z " fill="#000000" transform="translate(252,182)"/>
<path d="M0 0 C13.86 0 27.72 0 42 0 C42 2.31 42 4.62 42 7 C58.17 7 74.34 7 91 7 C91 11.62 91 16.24 91 21 C86.38 21 81.76 21 77 21 C77 18.69 77 16.38 77 14 C63.14 14 49.28 14 35 14 C35 11.69 35 9.38 35 7 C23.45 7 11.9 7 0 7 C0 4.69 0 2.38 0 0 Z " fill="#333132" transform="translate(567,518)"/>
<path d="M0 0 C9.24 0 18.48 0 28 0 C28 2.31 28 4.62 28 7 C30.31 7 32.62 7 35 7 C35 9.31 35 11.62 35 14 C41.93 14 48.86 14 56 14 C56 16.31 56 18.62 56 21 C42.14 21 28.28 21 14 21 C14 18.69 14 16.38 14 14 C7.07 14 0.14 14 -7 14 C-7 11.69 -7 9.38 -7 7 C-4.69 7 -2.38 7 0 7 C0 4.69 0 2.38 0 0 Z " fill="#AC3232" transform="translate(595,504)"/>
<path d="M0 0 C11.55 0 23.1 0 35 0 C35 2.31 35 4.62 35 7 C53.48 7 71.96 7 91 7 C91 9.31 91 11.62 91 14 C70.21 14 49.42 14 28 14 C28 11.69 28 9.38 28 7 C18.76 7 9.52 7 0 7 C0 4.69 0 2.38 0 0 Z " fill="#333132" transform="translate(532,490)"/>
<path d="M0 0 C11.55 0 23.1 0 35 0 C35 4.62 35 9.24 35 14 C32.69 14 30.38 14 28 14 C28 16.31 28 18.62 28 21 C21.07 21 14.14 21 7 21 C7 18.69 7 16.38 7 14 C4.69 14 2.38 14 0 14 C0 9.38 0 4.76 0 0 Z " fill="#AC3232" transform="translate(329,560)"/>
<path d="M0 0 C30.03 0 60.06 0 91 0 C91 2.31 91 4.62 91 7 C60.97 7 30.94 7 0 7 C0 4.69 0 2.38 0 0 Z " fill="#8B2626" transform="translate(294,455)"/>
<path d="M0 0 C6.93 0 13.86 0 21 0 C21 4.62 21 9.24 21 14 C23.31 14 25.62 14 28 14 C28 16.31 28 18.62 28 21 C30.31 21 32.62 21 35 21 C35 23.31 35 25.62 35 28 C32.69 28 30.38 28 28 28 C28 30.31 28 32.62 28 35 C25.69 35 23.38 35 21 35 C21 32.69 21 30.38 21 28 C18.69 28 16.38 28 14 28 C14 25.69 14 23.38 14 21 C11.69 21 9.38 21 7 21 C7 18.69 7 16.38 7 14 C4.69 14 2.38 14 0 14 C0 9.38 0 4.76 0 0 Z " fill="#A3A3A3" transform="translate(525,252)"/>
<path d="M0 0 C4.62 0 9.24 0 14 0 C14 2.31 14 4.62 14 7 C16.31 7 18.62 7 21 7 C21 4.69 21 2.38 21 0 C25.62 0 30.24 0 35 0 C35 4.62 35 9.24 35 14 C32.69 14 30.38 14 28 14 C28 16.31 28 18.62 28 21 C25.69 21 23.38 21 21 21 C21 23.31 21 25.62 21 28 C18.69 28 16.38 28 14 28 C14 25.69 14 23.38 14 21 C11.69 21 9.38 21 7 21 C7 18.69 7 16.38 7 14 C4.69 14 2.38 14 0 14 C0 9.38 0 4.76 0 0 Z " fill="#333132" transform="translate(399,252)"/>
<path d="M0 0 C2.31 0 4.62 0 7 0 C7 2.31 7 4.62 7 7 C9.31 7 11.62 7 14 7 C14 9.31 14 11.62 14 14 C16.31 14 18.62 14 21 14 C21 16.31 21 18.62 21 21 C23.31 21 25.62 21 28 21 C28 23.31 28 25.62 28 28 C16.45 28 4.9 28 -7 28 C-7 21.07 -7 14.14 -7 7 C-4.69 7 -2.38 7 0 7 C0 4.69 0 2.38 0 0 Z " fill="#A3A3A3" transform="translate(609,245)"/>
<path d="M0 0 C4.62 0 9.24 0 14 0 C14 2.31 14 4.62 14 7 C16.31 7 18.62 7 21 7 C21 4.69 21 2.38 21 0 C25.62 0 30.24 0 35 0 C35 4.62 35 9.24 35 14 C32.69 14 30.38 14 28 14 C28 16.31 28 18.62 28 21 C25.69 21 23.38 21 21 21 C21 23.31 21 25.62 21 28 C18.69 28 16.38 28 14 28 C14 25.69 14 23.38 14 21 C11.69 21 9.38 21 7 21 C7 18.69 7 16.38 7 14 C4.69 14 2.38 14 0 14 C0 9.38 0 4.76 0 0 Z " fill="#AC3232" transform="translate(189,189)"/>
<path d="M0 0 C4.62 0 9.24 0 14 0 C14 2.31 14 4.62 14 7 C16.31 7 18.62 7 21 7 C21 4.69 21 2.38 21 0 C25.62 0 30.24 0 35 0 C35 4.62 35 9.24 35 14 C32.69 14 30.38 14 28 14 C28 16.31 28 18.62 28 21 C25.69 21 23.38 21 21 21 C21 23.31 21 25.62 21 28 C18.69 28 16.38 28 14 28 C14 25.69 14 23.38 14 21 C11.69 21 9.38 21 7 21 C7 18.69 7 16.38 7 14 C4.69 14 2.38 14 0 14 C0 9.38 0 4.76 0 0 Z " fill="#AC3232" transform="translate(133,189)"/>
<path d="M0 0 C4.62 0 9.24 0 14 0 C14 2.31 14 4.62 14 7 C16.31 7 18.62 7 21 7 C21 4.69 21 2.38 21 0 C25.62 0 30.24 0 35 0 C35 4.62 35 9.24 35 14 C32.69 14 30.38 14 28 14 C28 16.31 28 18.62 28 21 C25.69 21 23.38 21 21 21 C21 23.31 21 25.62 21 28 C18.69 28 16.38 28 14 28 C14 25.69 14 23.38 14 21 C11.69 21 9.38 21 7 21 C7 18.69 7 16.38 7 14 C4.69 14 2.38 14 0 14 C0 9.38 0 4.76 0 0 Z " fill="#AC3232" transform="translate(77,189)"/>
<path d="M0 0 C27.72 0 55.44 0 84 0 C84 2.31 84 4.62 84 7 C56.28 7 28.56 7 0 7 C0 4.69 0 2.38 0 0 Z " fill="#333132" transform="translate(252,546)"/>
<path d="M0 0 C27.72 0 55.44 0 84 0 C84 2.31 84 4.62 84 7 C56.28 7 28.56 7 0 7 C0 4.69 0 2.38 0 0 Z " fill="#333132" transform="translate(273,518)"/>
<path d="M0 0 C4.62 0 9.24 0 14 0 C14 2.31 14 4.62 14 7 C30.17 7 46.34 7 63 7 C63 11.62 63 16.24 63 21 C60.69 21 58.38 21 56 21 C56 18.69 56 16.38 56 14 C37.52 14 19.04 14 0 14 C0 9.38 0 4.76 0 0 Z " fill="#8B2626" transform="translate(266,483)"/>
<path d="M0 0 C2.31 0 4.62 0 7 0 C7 2.31 7 4.62 7 7 C9.31 7 11.62 7 14 7 C14 9.31 14 11.62 14 14 C18.62 14 23.24 14 28 14 C28 16.31 28 18.62 28 21 C30.31 21 32.62 21 35 21 C35 23.31 35 25.62 35 28 C23.45 28 11.9 28 0 28 C0 18.76 0 9.52 0 0 Z " fill="#CFB056" transform="translate(595,336)"/>
<path d="M0 0 C13.86 0 27.72 0 42 0 C42 4.62 42 9.24 42 14 C28.14 14 14.28 14 0 14 C0 9.38 0 4.76 0 0 Z " fill="#AC3232" transform="translate(588,294)"/>
<path d="M0 0 C2.31 0 4.62 0 7 0 C7 2.31 7 4.62 7 7 C23.17 7 39.34 7 56 7 C56 9.31 56 11.62 56 14 C30.59 14 5.18 14 -21 14 C-21 11.69 -21 9.38 -21 7 C-14.07 7 -7.14 7 0 7 C0 4.69 0 2.38 0 0 Z " fill="#8B2626" transform="translate(371,280)"/>
<path d="M0 0 C25.41 0 50.82 0 77 0 C77 2.31 77 4.62 77 7 C51.59 7 26.18 7 0 7 C0 4.69 0 2.38 0 0 Z " fill="#333132" transform="translate(357,525)"/>
<path d="M0 0 C2.31 0 4.62 0 7 0 C7 2.31 7 4.62 7 7 C23.17 7 39.34 7 56 7 C56 9.31 56 11.62 56 14 C32.9 14 9.8 14 -14 14 C-14 11.69 -14 9.38 -14 7 C-9.38 7 -4.76 7 0 7 C0 4.69 0 2.38 0 0 Z " fill="#333132" transform="translate(497,413)"/>
<path d="M0 0 C11.55 0 23.1 0 35 0 C35 2.31 35 4.62 35 7 C32.69 7 30.38 7 28 7 C28 9.31 28 11.62 28 14 C14.14 14 0.28 14 -14 14 C-14 11.69 -14 9.38 -14 7 C-9.38 7 -4.76 7 0 7 C0 4.69 0 2.38 0 0 Z " fill="#AC3232" transform="translate(602,273)"/>
<path d="M0 0 C23.1 0 46.2 0 70 0 C70 2.31 70 4.62 70 7 C46.9 7 23.8 7 0 7 C0 4.69 0 2.38 0 0 Z " fill="#8B2626" transform="translate(364,518)"/>
<path d="M0 0 C16.17 0 32.34 0 49 0 C49 2.31 49 4.62 49 7 C46.69 7 44.38 7 42 7 C42 9.31 42 11.62 42 14 C35.07 14 28.14 14 21 14 C21 11.69 21 9.38 21 7 C14.07 7 7.14 7 0 7 C0 4.69 0 2.38 0 0 Z " fill="#8B2626" transform="translate(546,504)"/>
<path d="M0 0 C23.1 0 46.2 0 70 0 C70 2.31 70 4.62 70 7 C46.9 7 23.8 7 0 7 C0 4.69 0 2.38 0 0 Z " fill="#8B2626" transform="translate(413,308)"/>
<path d="M0 0 C20.79 0 41.58 0 63 0 C63 2.31 63 4.62 63 7 C42.21 7 21.42 7 0 7 C0 4.69 0 2.38 0 0 Z " fill="#8B2626" transform="translate(434,525)"/>
<path d="M0 0 C13.86 0 27.72 0 42 0 C42 4.62 42 9.24 42 14 C35.07 14 28.14 14 21 14 C21 11.69 21 9.38 21 7 C14.07 7 7.14 7 0 7 C0 4.69 0 2.38 0 0 Z " fill="#AC3232" transform="translate(588,315)"/>
<path d="M0 0 C9.24 0 18.48 0 28 0 C28 4.62 28 9.24 28 14 C16.45 14 4.9 14 -7 14 C-7 11.69 -7 9.38 -7 7 C-4.69 7 -2.38 7 0 7 C0 4.69 0 2.38 0 0 Z " fill="#D95763" transform="translate(427,266)"/>
<path d="M0 0 C2.31 0 4.62 0 7 0 C7 4.62 7 9.24 7 14 C-11.48 14 -29.96 14 -49 14 C-49 11.69 -49 9.38 -49 7 C-32.83 7 -16.66 7 0 7 C0 4.69 0 2.38 0 0 Z " fill="#A38A3F" transform="translate(504,217)"/>
<path d="M0 0 C13.86 0 27.72 0 42 0 C42 4.62 42 9.24 42 14 C35.07 14 28.14 14 21 14 C21 11.69 21 9.38 21 7 C14.07 7 7.14 7 0 7 C0 4.69 0 2.38 0 0 Z " fill="#A3A3A3" transform="translate(588,189)"/>
<path d="M0 0 C18.48 0 36.96 0 56 0 C56 2.31 56 4.62 56 7 C37.52 7 19.04 7 0 7 C0 4.69 0 2.38 0 0 Z " fill="#8B2626" transform="translate(280,553)"/>
<path d="M0 0 C18.48 0 36.96 0 56 0 C56 2.31 56 4.62 56 7 C37.52 7 19.04 7 0 7 C0 4.69 0 2.38 0 0 Z " fill="#333132" transform="translate(238,420)"/>
<path d="M0 0 C4.62 0 9.24 0 14 0 C14 2.31 14 4.62 14 7 C16.31 7 18.62 7 21 7 C21 9.31 21 11.62 21 14 C9.45 14 -2.1 14 -14 14 C-14 11.69 -14 9.38 -14 7 C-9.38 7 -4.76 7 0 7 C0 4.69 0 2.38 0 0 Z " fill="#AC3232" transform="translate(476,455)"/>
<path d="M0 0 C13.86 0 27.72 0 42 0 C42 4.62 42 9.24 42 14 C39.69 14 37.38 14 35 14 C35 11.69 35 9.38 35 7 C23.45 7 11.9 7 0 7 C0 4.69 0 2.38 0 0 Z " fill="#8B2626" transform="translate(455,280)"/>
<path d="M0 0 C2.31 0 4.62 0 7 0 C7 11.55 7 23.1 7 35 C9.31 35 11.62 35 14 35 C14 37.31 14 39.62 14 42 C9.38 42 4.76 42 0 42 C0 28.14 0 14.28 0 0 Z " fill="#595652" transform="translate(245,182)"/>
<path d="M0 0 C13.86 0 27.72 0 42 0 C42 2.31 42 4.62 42 7 C28.14 7 14.28 7 0 7 C0 4.69 0 2.38 0 0 Z " fill="#8B2626" transform="translate(322,476)"/>
<path d="M0 0 C13.86 0 27.72 0 42 0 C42 2.31 42 4.62 42 7 C28.14 7 14.28 7 0 7 C0 4.69 0 2.38 0 0 Z " fill="#4C251E" transform="translate(588,308)"/>
<path d="M0 0 C13.86 0 27.72 0 42 0 C42 2.31 42 4.62 42 7 C28.14 7 14.28 7 0 7 C0 4.69 0 2.38 0 0 Z " fill="#333132" transform="translate(588,287)"/>
<path d="M0 0 C2.31 0 4.62 0 7 0 C7 9.24 7 18.48 7 28 C4.69 28 2.38 28 0 28 C0 25.69 0 23.38 0 21 C-2.31 21 -4.62 21 -7 21 C-7 16.38 -7 11.76 -7 7 C-4.69 7 -2.38 7 0 7 C0 4.69 0 2.38 0 0 Z " fill="#141414" transform="translate(567,287)"/>
<path d="M0 0 C13.86 0 27.72 0 42 0 C42 2.31 42 4.62 42 7 C28.14 7 14.28 7 0 7 C0 4.69 0 2.38 0 0 Z " fill="#333132" transform="translate(329,280)"/>
<path d="M0 0 C13.86 0 27.72 0 42 0 C42 2.31 42 4.62 42 7 C28.14 7 14.28 7 0 7 C0 4.69 0 2.38 0 0 Z " fill="#141414" transform="translate(469,196)"/>
<path d="M0 0 C4.62 0 9.24 0 14 0 C14 9.24 14 18.48 14 28 C11.69 28 9.38 28 7 28 C7 23.38 7 18.76 7 14 C4.69 14 2.38 14 0 14 C0 9.38 0 4.76 0 0 Z " fill="#A3A3A3" transform="translate(560,175)"/>
<path d="M0 0 C9.24 0 18.48 0 28 0 C28 2.31 28 4.62 28 7 C25.69 7 23.38 7 21 7 C21 9.31 21 11.62 21 14 C16.38 14 11.76 14 7 14 C7 11.69 7 9.38 7 7 C4.69 7 2.38 7 0 7 C0 4.69 0 2.38 0 0 Z " fill="#000000" transform="translate(287,168)"/>
<path d="M0 0 C11.55 0 23.1 0 35 0 C35 2.31 35 4.62 35 7 C23.45 7 11.9 7 0 7 C0 4.69 0 2.38 0 0 Z " fill="#333132" transform="translate(336,553)"/>
<path d="M0 0 C4.62 0 9.24 0 14 0 C14 2.31 14 4.62 14 7 C11.69 7 9.38 7 7 7 C7 9.31 7 11.62 7 14 C0.07 14 -6.86 14 -14 14 C-14 11.69 -14 9.38 -14 7 C-9.38 7 -4.76 7 0 7 C0 4.69 0 2.38 0 0 Z " fill="#333132" transform="translate(518,483)"/>
<path d="M0 0 C2.31 0 4.62 0 7 0 C7 4.62 7 9.24 7 14 C9.31 14 11.62 14 14 14 C14 16.31 14 18.62 14 21 C9.38 21 4.76 21 0 21 C0 18.69 0 16.38 0 14 C-2.31 14 -4.62 14 -7 14 C-7 11.69 -7 9.38 -7 7 C-4.69 7 -2.38 7 0 7 C0 4.69 0 2.38 0 0 Z " fill="#AC3232" transform="translate(511,266)"/>
<path d="M0 0 C9.24 0 18.48 0 28 0 C28 2.31 28 4.62 28 7 C18.76 7 9.52 7 0 7 C0 4.69 0 2.38 0 0 Z " fill="#8B2626" transform="translate(350,490)"/>
<path d="M0 0 C9.24 0 18.48 0 28 0 C28 2.31 28 4.62 28 7 C18.76 7 9.52 7 0 7 C0 4.69 0 2.38 0 0 Z " fill="#8B2626" transform="translate(532,483)"/>
<path d="M0 0 C6.93 0 13.86 0 21 0 C21 4.62 21 9.24 21 14 C18.69 14 16.38 14 14 14 C14 11.69 14 9.38 14 7 C9.38 7 4.76 7 0 7 C0 4.69 0 2.38 0 0 Z " fill="#A38A3F" transform="translate(42,203)"/>
<path d="M0 0 C4.62 0 9.24 0 14 0 C14 4.62 14 9.24 14 14 C9.38 14 4.76 14 0 14 C0 9.38 0 4.76 0 0 Z " fill="#8B8B8B" transform="translate(378,154)"/>
<path d="M0 0 C6.93 0 13.86 0 21 0 C21 2.31 21 4.62 21 7 C14.07 7 7.14 7 0 7 C0 4.69 0 2.38 0 0 Z " fill="#AC3232" transform="translate(504,553)"/>
<path d="M0 0 C6.93 0 13.86 0 21 0 C21 2.31 21 4.62 21 7 C14.07 7 7.14 7 0 7 C0 4.69 0 2.38 0 0 Z " fill="#8B2626" transform="translate(441,434)"/>
<path d="M0 0 C6.93 0 13.86 0 21 0 C21 2.31 21 4.62 21 7 C14.07 7 7.14 7 0 7 C0 4.69 0 2.38 0 0 Z " fill="#CFB056" transform="translate(574,364)"/>
<path d="M0 0 C6.93 0 13.86 0 21 0 C21 2.31 21 4.62 21 7 C14.07 7 7.14 7 0 7 C0 4.69 0 2.38 0 0 Z " fill="#CFB056" transform="translate(490,364)"/>
<path d="M0 0 C6.93 0 13.86 0 21 0 C21 2.31 21 4.62 21 7 C14.07 7 7.14 7 0 7 C0 4.69 0 2.38 0 0 Z " fill="#CFB056" transform="translate(406,364)"/>
<path d="M0 0 C6.93 0 13.86 0 21 0 C21 2.31 21 4.62 21 7 C14.07 7 7.14 7 0 7 C0 4.69 0 2.38 0 0 Z " fill="#CFB056" transform="translate(322,364)"/>
<path d="M0 0 C6.93 0 13.86 0 21 0 C21 2.31 21 4.62 21 7 C14.07 7 7.14 7 0 7 C0 4.69 0 2.38 0 0 Z " fill="#CFB056" transform="translate(238,364)"/>
<path d="M0 0 C4.62 0 9.24 0 14 0 C14 4.62 14 9.24 14 14 C11.69 14 9.38 14 7 14 C7 11.69 7 9.38 7 7 C4.69 7 2.38 7 0 7 C0 4.69 0 2.38 0 0 Z " fill="#333132" transform="translate(616,329)"/>
<path d="M0 0 C6.93 0 13.86 0 21 0 C21 2.31 21 4.62 21 7 C14.07 7 7.14 7 0 7 C0 4.69 0 2.38 0 0 Z " fill="#333132" transform="translate(588,308)"/>
<path d="M0 0 C6.93 0 13.86 0 21 0 C21 2.31 21 4.62 21 7 C14.07 7 7.14 7 0 7 C0 4.69 0 2.38 0 0 Z " fill="#A38A3F" transform="translate(63,217)"/>
<path d="M0 0 C6.93 0 13.86 0 21 0 C21 2.31 21 4.62 21 7 C14.07 7 7.14 7 0 7 C0 4.69 0 2.38 0 0 Z " fill="#8B8B8B" transform="translate(420,210)"/>
<path d="M0 0 C4.62 0 9.24 0 14 0 C14 2.31 14 4.62 14 7 C9.38 7 4.76 7 0 7 C0 4.69 0 2.38 0 0 Z " fill="#AC3232" transform="translate(532,553)"/>
<path d="M0 0 C4.62 0 9.24 0 14 0 C14 2.31 14 4.62 14 7 C9.38 7 4.76 7 0 7 C0 4.69 0 2.38 0 0 Z " fill="#8B2626" transform="translate(336,546)"/>
<path d="M0 0 C4.62 0 9.24 0 14 0 C14 2.31 14 4.62 14 7 C9.38 7 4.76 7 0 7 C0 4.69 0 2.38 0 0 Z " fill="#8B2626" transform="translate(539,469)"/>
<path d="M0 0 C4.62 0 9.24 0 14 0 C14 2.31 14 4.62 14 7 C9.38 7 4.76 7 0 7 C0 4.69 0 2.38 0 0 Z " fill="#8B2626" transform="translate(497,315)"/>
<path d="M0 0 C4.62 0 9.24 0 14 0 C14 2.31 14 4.62 14 7 C9.38 7 4.76 7 0 7 C0 4.69 0 2.38 0 0 Z " fill="#141414" transform="translate(532,217)"/>
<path d="M0 0 C4.62 0 9.24 0 14 0 C14 2.31 14 4.62 14 7 C9.38 7 4.76 7 0 7 C0 4.69 0 2.38 0 0 Z " fill="#141414" transform="translate(231,196)"/>
<path d="M0 0 C4.62 0 9.24 0 14 0 C14 2.31 14 4.62 14 7 C9.38 7 4.76 7 0 7 C0 4.69 0 2.38 0 0 Z " fill="#333132" transform="translate(294,175)"/>
<path d="M0 0 C4.62 0 9.24 0 14 0 C14 2.31 14 4.62 14 7 C9.38 7 4.76 7 0 7 C0 4.69 0 2.38 0 0 Z " fill="#8B8B8B" transform="translate(350,161)"/>
<path d="M0 0 C4.62 0 9.24 0 14 0 C14 2.31 14 4.62 14 7 C9.38 7 4.76 7 0 7 C0 4.69 0 2.38 0 0 Z " fill="#8B8B8B" transform="translate(427,147)"/>
<path d="M0 0 C2.31 0 4.62 0 7 0 C7 4.62 7 9.24 7 14 C4.69 14 2.38 14 0 14 C0 9.38 0 4.76 0 0 Z " fill="#CFB056" transform="translate(301,84)"/>
<path d="M0 0 C2.31 0 4.62 0 7 0 C7 2.31 7 4.62 7 7 C4.69 7 2.38 7 0 7 C0 4.69 0 2.38 0 0 Z " fill="#AC3232" transform="translate(651,525)"/>
<path d="M0 0 C2.31 0 4.62 0 7 0 C7 2.31 7 4.62 7 7 C4.69 7 2.38 7 0 7 C0 4.69 0 2.38 0 0 Z " fill="#AC3232" transform="translate(497,413)"/>
<path d="M0 0 C2.31 0 4.62 0 7 0 C7 2.31 7 4.62 7 7 C4.69 7 2.38 7 0 7 C0 4.69 0 2.38 0 0 Z " fill="#AC3232" transform="translate(623,336)"/>
<path d="M0 0 C2.31 0 4.62 0 7 0 C7 2.31 7 4.62 7 7 C4.69 7 2.38 7 0 7 C0 4.69 0 2.38 0 0 Z " fill="#8B2626" transform="translate(287,308)"/>
<path d="M0 0 C2.31 0 4.62 0 7 0 C7 2.31 7 4.62 7 7 C4.69 7 2.38 7 0 7 C0 4.69 0 2.38 0 0 Z " fill="#AC3232" transform="translate(532,287)"/>
<path d="M0 0 C2.31 0 4.62 0 7 0 C7 2.31 7 4.62 7 7 C4.69 7 2.38 7 0 7 C0 4.69 0 2.38 0 0 Z " fill="#8B2626" transform="translate(322,287)"/>
<path d="M0 0 C2.31 0 4.62 0 7 0 C7 2.31 7 4.62 7 7 C4.69 7 2.38 7 0 7 C0 4.69 0 2.38 0 0 Z " fill="#A3A3A3" transform="translate(553,259)"/>
<path d="M0 0 C2.31 0 4.62 0 7 0 C7 2.31 7 4.62 7 7 C4.69 7 2.38 7 0 7 C0 4.69 0 2.38 0 0 Z " fill="#595652" transform="translate(266,189)"/>
<path d="M0 0 C2.31 0 4.62 0 7 0 C7 2.31 7 4.62 7 7 C4.69 7 2.38 7 0 7 C0 4.69 0 2.38 0 0 Z " fill="#A3A3A3" transform="translate(364,147)"/>
</svg>
